<?xml version="1.0" encoding="utf-8"?>
<!-- Generator: Adobe Illustrator 27.2.0, SVG Export Plug-In . SVG Version: 6.00 Build 0)  -->
<svg version="1.1" xmlns="http://www.w3.org/2000/svg" xmlns:xlink="http://www.w3.org/1999/xlink" x="0px" y="0px"
	 viewBox="0 0 937.12 507.57" style="enable-background:new 0 0 937.12 507.57;" xml:space="preserve">
<style type="text/css">
	.st0{fill:url(#SVGID_1_);}
	.st1{fill:url(#SVGID_00000152987117558551381170000000256629073088773014_);}
	.st2{fill:url(#SVGID_00000008122874585562388170000006804879402467504283_);}
	.st3{fill:#F3733A;}
	.st4{fill:url(#SVGID_00000100382430452560829050000003262526417151696268_);}
	.st5{fill:url(#SVGID_00000183247237136790148790000012684470019616969624_);}
	.st6{fill:url(#SVGID_00000041996489235646578220000009338442460670122661_);}
	.st7{fill:url(#SVGID_00000106136688137670095030000011889377931902422439_);}
	.st8{fill:url(#SVGID_00000002349567697672505900000003797813641010196924_);}
	.st9{fill:url(#SVGID_00000070807441855669112790000010678645897402934708_);}
	.st10{fill:url(#SVGID_00000177473760084913655160000011715287909352118659_);}
	.st11{fill:url(#SVGID_00000052797574857701086750000001399204414310828164_);}
	.st12{fill:url(#SVGID_00000176727630489261797350000016258737705573378702_);}
	.st13{fill:url(#SVGID_00000021083136520206900470000008751655128401682841_);}
	.st14{fill:url(#SVGID_00000047765102801813380000000009034599918384501405_);}
</style>
<g id="Layer_2">
	<g id="Layer_1">
		<linearGradient id="SVGID_1_" gradientUnits="userSpaceOnUse" x1="468.5403" y1="0" x2="468.5403" y2="521.8942">
			<stop  offset="0" style="stop-color:#FFF8A3"/>
			<stop  offset="4.623458e-03" style="stop-color:#FFF6A0"/>
			<stop  offset="0.0638" style="stop-color:#FFE67B"/>
			<stop  offset="0.1243" style="stop-color:#FFDA5A"/>
			<stop  offset="0.1856" style="stop-color:#FFD13C"/>
			<stop  offset="0.2478" style="stop-color:#FECB24"/>
			<stop  offset="0.3117" style="stop-color:#FEC812"/>
			<stop  offset="0.3798" style="stop-color:#FDC70C"/>
			<stop  offset="0.7628" style="stop-color:#F3903F"/>
			<stop  offset="0.8799" style="stop-color:#F4963C"/>
			<stop  offset="0.8989" style="stop-color:#ED683C"/>
			<stop  offset="1" style="stop-color:#E93E3A"/>
		</linearGradient>
		<rect x="0" class="st0" width="937.09" height="521.89"/>
	</g>
	
		<linearGradient id="SVGID_00000103968944097074813620000005226449484658305954_" gradientUnits="userSpaceOnUse" x1="526.4756" y1="582.9204" x2="526.4756" y2="322.7463">
		<stop  offset="0.2151" style="stop-color:#F5D05A"/>
		<stop  offset="0.3388" style="stop-color:#F3D777"/>
		<stop  offset="0.538" style="stop-color:#F2E29C"/>
		<stop  offset="0.6369" style="stop-color:#F1E8AC"/>
	</linearGradient>
	<path style="fill:url(#SVGID_00000103968944097074813620000005226449484658305954_);" d="M937.12,397.25
		c0,0-208.19-31.5-276.08-36.69s-131.15-22.73-142.56-20.93c-11.41,1.79-34.46-15.6-40.43-16.87
		c-5.97-1.27-464.38,157.15-341.21,228.47s800.28,0,800.28,0V397.25z"/>
</g>
<g id="Layer_3">
	
		<linearGradient id="SVGID_00000075842765412329302650000011972836218874101647_" gradientUnits="userSpaceOnUse" x1="518.477" y1="434.3618" x2="-0.039" y2="434.3618">
		<stop  offset="0" style="stop-color:#8E8A50"/>
		<stop  offset="0.259" style="stop-color:#AA9751"/>
		<stop  offset="0.497" style="stop-color:#BD994B"/>
		<stop  offset="0.6145" style="stop-color:#C29848"/>
	</linearGradient>
	<path style="fill:url(#SVGID_00000075842765412329302650000011972836218874101647_);" d="M0.03,464.56
		c-5.44,13.69,294.31-85.49,348.87-112.75c44.21-22.09,99.38-28.67,123.18-29.06c23.8-0.39-30.09,11.62-26.59,20.15
		c3.5,8.52,102.18,25.96,64.39,30.22c-37.79,4.26-6.3,38.36-58.79,58.12s-149.77,41.46-170.07,54.24
		c-20.3,12.79,106.38,30.61,122.48,34.48c16.1,3.87-1.4,26.01-1.4,26.01H0.03V464.56z"/>
	<ellipse class="st3" cx="903.5" cy="10.82" rx="93.43" ry="97.39"/>
</g>
<g id="Layer_4">
	
		<linearGradient id="SVGID_00000099644997635102288310000000885695563613614270_" gradientUnits="userSpaceOnUse" x1="56.6101" y1="481.8368" x2="56.6101" y2="422.8054" gradientTransform="matrix(-1.1407 0 0 1 932.9111 0)">
		<stop  offset="0" style="stop-color:#95C93D"/>
		<stop  offset="0.1267" style="stop-color:#AACF38"/>
		<stop  offset="0.4527" style="stop-color:#D8E022"/>
		<stop  offset="0.6145" style="stop-color:#E9E612"/>
	</linearGradient>
	<path style="fill:url(#SVGID_00000099644997635102288310000000885695563613614270_);" d="M852.54,456.01c0,0,6.35-26.54,17.52-25.3
		s27.14-16.31,27.14-2.72c0,13.58-14.02,27.73-15.17,34.48c-0.52,3.06-24.45,25.99-26.51,17.5c-1.7-7-24.58,5.55-12.6-5.66
		S852.54,456.01,852.54,456.01z"/>
	
		<linearGradient id="SVGID_00000074409648433231043060000009970246142525106342_" gradientUnits="userSpaceOnUse" x1="153.2647" y1="511.1799" x2="153.2647" y2="452.4937" gradientTransform="matrix(-1.149 0 0 1 961.3123 0)">
		<stop  offset="0" style="stop-color:#95C93D"/>
		<stop  offset="0.1267" style="stop-color:#AACF38"/>
		<stop  offset="0.4527" style="stop-color:#D8E022"/>
		<stop  offset="0.6145" style="stop-color:#E9E612"/>
	</linearGradient>
	<path style="fill:url(#SVGID_00000074409648433231043060000009970246142525106342_);" d="M804.94,511.18
		c0,0-34.53-4.81-36.21-21.99c-1.68-17.18-8.42-23.11,0-34.96s40.71,41.17,36.77,38.36C801.56,489.78,804.94,511.18,804.94,511.18z"
		/>
	
		<linearGradient id="SVGID_00000160151383231408042250000004644498808553604993_" gradientUnits="userSpaceOnUse" x1="639.36" y1="487.7757" x2="639.36" y2="428.7442">
		<stop  offset="0" style="stop-color:#95C93D"/>
		<stop  offset="0.1267" style="stop-color:#AACF38"/>
		<stop  offset="0.4527" style="stop-color:#D8E022"/>
		<stop  offset="0.6145" style="stop-color:#E9E612"/>
	</linearGradient>
	<path style="fill:url(#SVGID_00000160151383231408042250000004644498808553604993_);" d="M653.21,461.95c0,0-5.57-26.54-15.36-25.3
		s-23.8-16.31-23.8-2.72s12.29,27.73,13.3,34.48c0.46,3.06,21.43,25.99,23.24,17.5c1.49-7,21.55,5.55,11.05-5.66
		C651.14,469.02,653.21,461.95,653.21,461.95z"/>
	
		<linearGradient id="SVGID_00000035504668918802737510000010078222590245055106_" gradientUnits="userSpaceOnUse" x1="705.6676" y1="504.5806" x2="705.6676" y2="446.4754">
		<stop  offset="0" style="stop-color:#95C93D"/>
		<stop  offset="0.1267" style="stop-color:#AACF38"/>
		<stop  offset="0.4527" style="stop-color:#D8E022"/>
		<stop  offset="0.6145" style="stop-color:#E9E612"/>
	</linearGradient>
	<path style="fill:url(#SVGID_00000035504668918802737510000010078222590245055106_);" d="M693.29,481.58
		c0,0,20.56-10.44,26.36-23.13s3.25-13.03,10.44-11.13c6.22,1.64,1.78,13.45,0,24.65c-1.78,11.2-30.81,32.61-30.81,32.61
		s-32.97-9.38-16.73-14.79S693.29,481.58,693.29,481.58z"/>
	
		<linearGradient id="SVGID_00000171000504160932754850000005635617801062003901_" gradientUnits="userSpaceOnUse" x1="455.1863" y1="522.2556" x2="455.1863" y2="463.5694" gradientTransform="matrix(-0.7895 0 0 0.9689 507.6263 9.1307)">
		<stop  offset="0" style="stop-color:#95C93D"/>
		<stop  offset="0.1267" style="stop-color:#AACF38"/>
		<stop  offset="0.4527" style="stop-color:#D8E022"/>
		<stop  offset="0.6145" style="stop-color:#E9E612"/>
	</linearGradient>
	<path style="fill:url(#SVGID_00000171000504160932754850000005635617801062003901_);" d="M161.83,515.14
		c0,0-23.72-4.66-24.88-21.31c-1.16-16.65-5.78-22.39,0-33.87s27.97,39.89,25.27,37.17C159.51,494.4,161.83,515.14,161.83,515.14z"
		/>
	
		<linearGradient id="SVGID_00000133489330635854410770000007769528709040109696_" gradientUnits="userSpaceOnUse" x1="225.5681" y1="500.9013" x2="225.5681" y2="442.2152">
		<stop  offset="0" style="stop-color:#95C93D"/>
		<stop  offset="0.1267" style="stop-color:#AACF38"/>
		<stop  offset="0.4527" style="stop-color:#D8E022"/>
		<stop  offset="0.6145" style="stop-color:#E9E612"/>
	</linearGradient>
	<path style="fill:url(#SVGID_00000133489330635854410770000007769528709040109696_);" d="M208.4,500.9c0,0,30.05-4.81,31.51-21.99
		c1.47-17.18,7.33-23.11,0-34.96s-35.43,41.17-32,38.36C211.34,479.5,208.4,500.9,208.4,500.9z"/>
	
		<linearGradient id="SVGID_00000168824236291389903610000005642056093818529963_" gradientUnits="userSpaceOnUse" x1="186.7615" y1="562.9216" x2="186.7615" y2="422.752">
		<stop  offset="0" style="stop-color:#95C93D"/>
		<stop  offset="0.6533" style="stop-color:#7DC461"/>
		<stop  offset="1" style="stop-color:#72C271"/>
	</linearGradient>
	<path style="fill:url(#SVGID_00000168824236291389903610000005642056093818529963_);" d="M159.44,549.82
		c-9.58-34.58,0-93.03,0-93.03s15.39-72.89,48.36-5.33s-23.45,107.26-6.59,108.44S165.07,570.13,159.44,549.82z"/>
	
		<linearGradient id="SVGID_00000150082395989334621300000003986613387345355947_" gradientUnits="userSpaceOnUse" x1="314.3131" y1="542.9424" x2="314.3131" y2="542.9424">
		<stop  offset="0" style="stop-color:#FFF33B"/>
		<stop  offset="0.1005" style="stop-color:#FFE029"/>
		<stop  offset="0.2202" style="stop-color:#FFD217"/>
		<stop  offset="0.3434" style="stop-color:#FEC90E"/>
		<stop  offset="0.4747" style="stop-color:#FDC70C"/>
		<stop  offset="0.7628" style="stop-color:#F3903F"/>
		<stop  offset="0.8989" style="stop-color:#ED683C"/>
		<stop  offset="1" style="stop-color:#E93E3A"/>
	</linearGradient>
	<path style="fill:url(#SVGID_00000150082395989334621300000003986613387345355947_);" d="M314.31,542.94"/>
	
		<linearGradient id="SVGID_00000112603252779297771990000017699455803269172360_" gradientUnits="userSpaceOnUse" x1="678.0447" y1="555.9861" x2="678.0447" y2="415.8165">
		<stop  offset="0" style="stop-color:#95C93D"/>
		<stop  offset="0.6533" style="stop-color:#7DC461"/>
		<stop  offset="1" style="stop-color:#72C271"/>
	</linearGradient>
	<path style="fill:url(#SVGID_00000112603252779297771990000017699455803269172360_);" d="M650.72,542.88
		c-9.58-34.58,0-93.03,0-93.03s15.39-72.89,48.36-5.33s-23.45,107.26-6.59,108.44C709.34,554.14,656.35,563.19,650.72,542.88z"/>
	
		<linearGradient id="SVGID_00000053518133377709524610000006853159435526311070_" gradientUnits="userSpaceOnUse" x1="827.9594" y1="551.9216" x2="827.9594" y2="411.752">
		<stop  offset="0" style="stop-color:#95C93D"/>
		<stop  offset="0.6533" style="stop-color:#7DC461"/>
		<stop  offset="1" style="stop-color:#72C271"/>
	</linearGradient>
	<path style="fill:url(#SVGID_00000053518133377709524610000006853159435526311070_);" d="M800.64,538.82
		c-9.58-34.58,0-93.03,0-93.03s15.39-72.89,48.36-5.33c32.97,67.55-23.45,107.26-6.59,108.44S806.26,559.13,800.64,538.82z"/>
	
		<linearGradient id="SVGID_00000173852298725808691720000005021951993105057727_" gradientUnits="userSpaceOnUse" x1="487.4366" y1="352.0033" x2="487.4366" y2="352.0033">
		<stop  offset="0" style="stop-color:#95C93D"/>
		<stop  offset="0.1267" style="stop-color:#AACF38"/>
		<stop  offset="0.4527" style="stop-color:#D8E022"/>
		<stop  offset="0.6145" style="stop-color:#E9E612"/>
	</linearGradient>
	<path style="fill:url(#SVGID_00000173852298725808691720000005021951993105057727_);" d="M487.44,352"/>
</g>
</svg>
